<?xml version="1.0" encoding="utf-8"?>
<!-- Generator: Adobe Illustrator 18.1.0, SVG Export Plug-In . SVG Version: 6.00 Build 0)  -->
<svg version="1.1" id="Layer_1" xmlns="http://www.w3.org/2000/svg" xmlns:xlink="http://www.w3.org/1999/xlink" x="0px" y="0px"
	 viewBox="0 0 500 500" enable-background="new 0 0 500 500" xml:space="preserve">
<g>
	<path fill="#010101" d="M459.1,46.4l-5.5-5.5c-54.5-54.5-143.5-54.5-198,0l-71.2,71.2c-7.8,7.8-14.4,16.2-20,25.2
		c29.5-9.4,61.2-9.6,90.8-0.8l47.9-47.9c28.3-28.3,74.5-28.3,102.9,0l5.5,5.5c28.3,28.3,28.3,74.5,0,102.9l-47.9,47.9l-22.3,22.3
		l-0.8,0.8c-10.6,10.6-23.9,17.3-37.7,19.9c-8.8,1.7-18.1,1.7-26.9,0.1c-14-2.6-27.4-9.2-38.3-20l-5.5-5.5
		c-10.8-10.8-17.4-24.3-20-38.3c-15.5-0.3-31,5.5-42.9,17.3l-17.4,17.3c6.8,18.7,17.7,36.2,32.6,51.3l5.5,5.5
		c14.9,14.9,32.5,25.8,51.3,32.6c10,3.6,20.4,6.1,30.8,7.3c18.3,2.2,36.9,0.9,54.8-4.2c12.6-3.5,24.8-8.8,36.1-15.8
		c9-5.6,17.4-12.2,25.2-20l71.2-71.2C513.6,189.9,513.6,100.9,459.1,46.4z"/>
	<path fill="#010101" d="M270.3,368.8c-8.7-1-17.1-2.9-25.5-5.3l-47.9,47.9c-28.3,28.3-74.5,28.3-102.9,0l-5.5-5.5
		c-28.3-28.3-28.3-74.5,0-102.9l47.7-47.7l23.4-23.4c14-14,32.7-21.6,52.6-21.3l11,0.1l0.1,0.9c14.3,2.5,28.1,9.1,39.1,20.1l5.5,5.5
		c10.8,10.8,17.4,24.2,20,38.2c4,0.1,8.2-0.3,12.2-1c11.7-2.2,22.3-7.8,30.6-16.2l17.4-17.3c-6.8-18.7-17.7-36.2-32.6-51.3l-5.5-5.5
		c-16.9-16.9-37.1-28.6-58.6-35.1h-0.1c-0.9-0.3-1.8-0.5-2.7-0.8c-1-0.3-1.9-0.5-3-0.8c-0.9-0.3-1.9-0.5-2.9-0.6
		c-1-0.3-2.2-0.5-3.2-0.6c-0.9-0.1-1.7-0.4-2.6-0.5c-1.6-0.3-3.1-0.5-4.7-0.8c-0.4,0-0.8-0.1-1.3-0.3c-2.1-0.3-4-0.5-6.1-0.8
		c-0.4,0-0.9-0.1-1.3-0.1c-1.7-0.1-3.4-0.3-4.9-0.4c-0.5,0-1,0-1.6-0.1c-1.7-0.1-3.4-0.1-5.1-0.1c-0.4,0-0.9,0-1.3,0
		c-2.1,0-4.2,0-6.2,0.1c-0.4,0-0.8,0-1.3,0.1c-1.6,0.1-3.1,0.3-4.5,0.4c-0.9,0.1-1.9,0.1-2.9,0.3c-0.9,0.1-1.8,0.3-2.7,0.4
		c-1.2,0.1-2.5,0.3-3.6,0.5c-0.4,0.1-0.8,0.1-1.3,0.3c-6.6,1-13.1,2.6-19.6,4.7l-1.4,0.5c-20.1,6.6-39.1,17.9-55.1,33.9l-71.2,71.2
		c-54.5,54.5-54.5,143.5,0,198l5.5,5.5c54.7,54.7,143.5,54.7,198,0l71.2-71.2c7.8-7.8,14.4-16.2,20-25.2c-1.7,0.5-3.5,1-5.3,1.6
		C310.6,369.7,290.5,371.3,270.3,368.8z"/>
</g>
</svg>
